#!OML:ASF F:\VICON\USERDATA\INSTALL\Justin_Nancy\Justin_Nancy.ASF
:FULLY-SPECIFIED
:DEGREES
148
root 0.407272 16.9838 8.58423 2.21618 -5.74272 -5.45107
lowerback 4.22648 1.45846 3.17288
upperback -0.100254 2.18242 3.27778
thorax -2.484 1.06699 1.45778
lowerneck -16.6345 -2.83555 -9.16629
upperneck 21.2256 -2.50537 4.32955
head 9.64754 -1.41956 2.70543
rclavicle 8.64713e-015 -2.06736e-014
rhumerus -25.8685 -5.69795 -79.6899
rradius 36.8498
rwrist 1.13389
rhand -14.2116 11.9526
rfingers 7.12502
rthumb 11.925 -17.6878
lclavicle 8.64713e-015 -2.06736e-014
lhumerus -41.4568 3.27671 85.5824
lradius 29.6659
lwrist -8.88261
lhand -10.7603 26.1895
lfingers 7.12502
lthumb 15.2514 55.6073
rfemur 13.7431 7.88392 33.3004
rtibia 14.3559
rfoot -16.382 -5.09458
rtoes -6.37574
lfemur -35.7094 -5.48403 -9.89298
ltibia 23.9492
lfoot -3.67095 13.139
ltoes -1.64925
149
root 0.418695 16.9656 8.84969 2.47067 -6.04545 -5.34772
lowerback 3.83813 1.55503 3.26975
upperback -0.0355253 2.28777 3.15439
thorax -2.19057 1.12084 1.28213
lowerneck -16.9641 -2.85074 -9.00161
upperneck 21.1628 -2.51548 4.23756
head 9.6836 -1.41686 2.64211
rclavicle -2.01269e-015 2.14687e-014
rhumerus -25.3712 -5.63955 -79.7483
rradius 37.5216
rwrist 0.92698
rhand -14.4282 11.9716
rfingers 7.12502
rthumb 11.7162 -17.6808
lclavicle -2.01269e-015 2.14687e-014
lhumerus -41.5938 3.6822 85.4073
lradius 28.8559
lwrist -9.55749
lhand -10.4202 26.1872
lfingers 7.12502
lthumb 15.579 55.5798
rfemur 14.6007 7.7717 32.9142
rtibia 14.1269
rfoot -16.2123 -4.24295
rtoes -7.04314
lfemur -35.8913 -6.87848 -9.15903
ltibia 22.0749
lfoot -5.98972 14.7546
ltoes -0.665521
150
root 0.429606 16.9484 9.10851 2.64871 -6.53836 -5.25186
lowerback 3.59611 1.72701 3.34159
upperback 0.137311 2.49581 3.05274
thorax -1.86896 1.22755 1.1369
lowerneck -17.4382 -2.90029 -9.00993
upperneck 21.1417 -2.53428 4.23665
head 9.7659 -1.42108 2.63839
rclavicle 2.66371e-014 3.45885e-014
rhumerus -24.4666 -5.77631 -79.7433
rradius 38.0923
rwrist 0.420599
rhand -13.9381 11.1252
rfingers 7.12502
rthumb 12.1888 -18.4996
lclavicle 2.66371e-014 3.45885e-014
lhumerus -41.6058 3.96856 85.3285
lradius 28.167
lwrist -10.0996
lhand -10.3766 26.1393
lfingers 7.12502
lthumb 15.6209 55.5286
rfemur 15.3597 7.86071 32.5335
rtibia 14.0327
rfoot -16.0263 -3.09137
rtoes -6.44639
lfemur -36.0738 -9.31557 -7.82669
ltibia 20.6977
lfoot -8.51935 17.692
ltoes -0.514408
151
root 0.438356 16.9177 9.3661 2.76404 -6.90523 -5.23362
lowerback 3.52183 1.85102 3.38099
upperback 0.196978 2.65522 3.04106
thorax -1.76297 1.30809 1.09885
lowerneck -17.5159 -2.93523 -9.25195
upperneck 21.0648 -2.55092 4.42443
head 9.7605 -1.42475 2.74145
rclavicle -1.99779e-014 -1.39149e-014
rhumerus -23.6469 -5.89307 -79.6067
rradius 37.8766
rwrist 0.732668
rhand -14.4873 11.8905
rfingers 7.12502
rthumb 11.6592 -17.7651
lclavicle -1.99779e-014 -1.39149e-014
lhumerus -41.7889 4.40636 85.2187
lradius 27.516
lwrist -10.7712
lhand -10.3163 25.3586
lfingers 7.12502
lthumb 15.6791 54.7433
rfemur 16.0245 8.02831 32.3355
rtibia 14.2288
rfoot -15.7674 -2.26026
rtoes -6.83414
lfemur -35.9392 -8.58902 -8.01489
ltibia 19.725
lfoot -10.3289 16.8029
ltoes -1.57234
152
root 0.443797 16.8803 9.6281 2.86261 -7.11592 -5.53
lowerback 3.64077 1.90199 3.70211
upperback 0.0310938 2.75248 3.12382
thorax -1.98928 1.35017 0.993072
lowerneck -17.2103 -2.92755 -9.35868
upperneck 20.9624 -2.55721 4.49597
head 9.67065 -1.4297 2.78336
rclavicle 6.11263e-015 9.54166e-015
rhumerus -23.5239 -5.78635 -79.5299
rradius 38.2251
rwrist 0.437153
rhand -14.9303 12.0545
rfingers 7.12502
rthumb 11.232 -17.6248
lclavicle 6.11263e-015 9.54166e-015
lhumerus -42.2691 5.15515 84.8441
lradius 26.8549
lwrist -12.061
lhand -9.23842 25.038
lfingers 7.12502
lthumb 16.7169 54.3382
rfemur 16.736 8.12578 32.5455
rtibia 14.6097
rfoot -15.4007 -1.76892
rtoes -7.85245
lfemur -35.8787 -7.97908 -7.97318
ltibia 19.249
lfoot -11.3065 15.8258
ltoes -3.61559
